<svg width="254" height="47" viewBox="0 0 254 47" fill="none" xmlns="http://www.w3.org/2000/svg">
<path d="M14.2313 43.0987L16.0599 41.0141L13.8773 34.0459L7.56557 34.4032L2.90549 33.6885C2.61055 34.7407 1.8673 36.7975 1.25382 38.0363C0.486976 39.5848 -0.102907 41.6097 0.0150697 42.2053C0.109451 42.6818 2.17797 44.7861 3.20044 45.7788C3.27909 45.6795 3.56617 45.3261 4.08526 44.7067C4.60436 44.0873 5.83525 41.9869 6.38581 41.0141C6.6021 41.0935 7.28243 41.3596 8.27343 41.7884C9.26444 42.2172 12.6582 42.8406 14.2313 43.0987Z" fill="#71717A"/>
<path d="M30.8519 43.1531C30.3689 42.4692 26.2634 38.8381 24.271 37.108L28.1954 29.9027C30.3085 31.2868 34.6556 34.1404 35.1386 34.4824C35.6216 34.8243 36.8291 38.2478 37.3725 39.9168L42.927 39.062V39.9168C42.8063 40.3239 42.5286 41.1991 42.3837 41.4434C42.2388 41.6876 41.317 42.5221 40.8743 42.9089C40.6529 42.9903 40.1135 43.2264 39.7271 43.5195C39.3407 43.8126 35.6618 45.962 33.8707 47C33.0657 46.0027 31.3349 43.837 30.8519 43.1531Z" fill="#A1A1AA"/>
<path d="M36.165 42.1151L37.4329 39.9168L42.8667 39.062L36.165 42.1151Z" fill="#71717A"/>
<path d="M37.5286 19.3471C37.3963 19.0812 36.8486 16.5035 36.5913 15.2479L31.9048 15.8573L30.9124 25.1636C33.9264 26.4192 40.0979 28.9636 40.6713 29.0966C41.2447 29.2295 44.3654 29.152 45.8541 29.0966L46.5708 28.0441C46.8465 27.2316 47.3538 25.4516 47.1773 24.8312C47.0009 24.2108 45.9643 23.1324 45.4681 22.6708C44.7514 22.4123 43.0642 21.862 42.0497 21.7291C40.7816 21.5629 39.0173 21.6183 38.7967 21.4521C38.5762 21.2859 37.694 19.6795 37.5286 19.3471Z" fill="#71717A"/>
<path d="M10.5657 30.3912C10.5657 28.193 12.4977 22.9417 13.5241 19.7665L26.8067 21.1709L11.1091 34.3602C10.9682 33.4036 10.5657 32.5894 10.5657 30.3912Z" fill="#71717A"/>
<path d="M44.2552 7.432C44.6899 7.96935 47.2538 9.36563 48.4815 9.9966C49.9788 11.8529 43.913 12.9276 40.693 13.2329L30.9122 4.62317C30.6908 4.60281 30.2601 4.34228 30.3084 3.46299C30.3688 2.36388 31.5763 0.287785 32.9046 0.104599C33.9672 -0.0419502 35.1184 1.02052 35.5611 1.57008C36.0642 1.54973 37.1067 1.50902 37.2516 1.50902C37.3965 1.50902 37.5937 1.14265 37.6742 0.959463C37.8956 0.511677 38.592 -0.286196 39.6063 0.104599C40.6206 0.495394 40.9144 2.1807 40.9345 2.9745L41.4175 3.34087C41.6107 3.48742 43.3898 4.98954 44.2552 5.72228C44.074 6.06829 43.8205 6.89466 44.2552 7.432Z" fill="#E4E4E7"/>
<path d="M46.61 13.8435C46.9481 14.1854 47.7974 13.9249 48.1798 13.7824C49.2062 11.4621 48.9888 11.0346 48.9647 10.8515C48.9005 10.3648 48.6427 10.0169 48.4817 9.93553C48.4414 9.93553 48.3247 9.95996 48.1798 10.0577C47.9987 10.1798 47.8779 10.1798 47.7571 10.2408C47.6364 10.3019 46.8515 10.2408 46.0667 10.1798L46.0666 10.1798C45.2818 10.1187 44.6176 11.0957 44.7384 11.7063C44.8246 12.1422 46.1874 13.416 46.61 13.8435Z" fill="#3F3F46"/>
<path d="M43.7119 11.7063C43.422 11.7552 41.9811 11.6453 41.2968 11.5842C41.2365 12.4187 41.2002 14.2709 41.5383 15.0037C41.8764 15.7364 44.054 15.9196 45.1005 15.9196L47.3344 14.7594L48.1796 13.7824C47.9985 13.7621 47.4914 13.7091 46.9118 13.6603C46.3322 13.6114 45.2212 12.2559 44.7382 11.5842C44.5169 11.6046 44.0017 11.6575 43.7119 11.7063Z" fill="#D4D4D8"/>
<path d="M9.66005 13.1124C13.2423 12.2168 20.6605 10.389 21.6748 10.2425C22.9427 10.0593 25.7199 6.15136 27.5916 5.84605C29.0889 5.60181 29.8255 5.50004 30.0066 5.47968C30.0338 4.98507 30.1147 4.22585 30.2704 3.46464C30.4607 2.53431 30.7625 1.60104 31.2141 1.1443C32.2405 0.106251 32.1801 0.472621 33.0858 0.41156C33.8103 0.36271 34.9171 1.20536 35.38 1.63279H36.7687C37.1309 1.10359 38.109 0.0574023 39.1233 0.106252C40.1376 0.155101 40.6729 1.1443 40.8138 1.63279L41.2968 3.15934C41.0325 3.0399 40.6906 2.88613 40.3308 2.72548C39.4031 2.31122 38.3569 1.85118 38.2177 1.81598C38.0245 1.76713 37.9359 1.75492 37.9158 1.75492C38.0969 1.46996 38.5558 0.900052 38.9422 0.900052C39.4252 0.900052 39.9082 1.08324 40.1497 1.63279C40.3429 2.07244 40.3509 2.54444 40.3308 2.72548C40.6906 2.88613 41.0325 3.0399 41.2968 3.15934L40.8138 1.63279C40.6729 1.1443 40.1376 0.155101 39.1233 0.106252C38.109 0.0574023 37.1309 1.10359 36.7687 1.63279H35.38C34.9171 1.20536 33.8103 0.36271 33.0858 0.41156C32.1801 0.472621 32.2405 0.106251 31.2141 1.1443C30.7625 1.60104 30.4607 2.53431 30.2704 3.46464C30.384 3.52449 30.5204 3.59504 30.6707 3.67107C30.8519 3.13412 31.359 2.01138 31.9386 1.81598C32.0191 1.71421 32.2646 1.49846 32.6027 1.44961C33.0254 1.38855 33.6895 1.38855 34.2329 1.75492C34.6676 2.04801 34.8165 2.28412 34.8366 2.36553C34.8769 2.77261 34.8366 3.68447 34.3536 4.07526C33.8706 4.46606 33.6694 4.97083 33.6291 5.17437C33.7901 5.90711 34.6072 7.40923 36.5875 7.55578C38.5679 7.70233 39.7472 7.45401 40.0893 7.31153C40.3711 7.23012 41.0432 7.11614 41.478 7.31153C41.9127 7.50693 42.0616 7.59649 42.0817 7.61684C41.8201 8.59383 41.2968 10.7921 41.2968 11.769C41.2968 12.9903 41.2365 14.3336 42.0817 14.8832C42.7579 15.3228 44.376 15.5549 45.1005 15.6159C45.0804 15.1885 45.2092 14.297 45.8854 14.1504C46.5616 14.0039 47.0124 14.2929 47.1533 14.4558L47.3344 14.7C46.9319 15.331 45.3541 16.654 42.2628 16.8982C39.1716 17.1425 37.9158 17.2035 37.6743 17.2035L35.4404 17.3257C35.1385 19.646 34.3295 24.8851 33.5084 27.2787C32.6873 29.6723 29.8053 34.3602 28.3161 36.2531C27.652 37.2912 25.4784 39.2224 23.3049 39.8574C20.588 40.6512 16.9655 40.7123 16.4825 40.7734C16.0961 40.8222 15.9995 41.3213 14.6712 40.6496C14.0071 40.2221 13.1618 40.0373 11.8336 38.3903C10.9321 37.2725 10.8072 36.1921 10.5657 34.7877C10.4082 33.872 10.3846 30.9001 10.4449 30.8186C11.5518 28.193 13.9467 25.9598 14.1882 25.569C14.4901 25.0805 14.792 24.1035 16.241 23.8593C17.69 23.615 20.4069 23.2486 21.3729 22.7601C22.1457 22.3694 22.7817 21.946 23.003 21.7832C21.9968 21.7628 19.6099 21.6488 18.1126 21.3557C16.241 20.9894 13.4033 21.1725 12.4373 21.3557C11.6645 21.5023 11.6323 21.5796 11.7128 21.6C10.6059 23.269 8.51307 26.8399 8.15066 27.2787C7.54691 28.0098 5.16556 28.5122 4.46776 28.3151C3.381 28.0082 2.53574 25.223 2.05273 23.554C3.68287 20.4195 7.48653 13.9428 9.66005 13.1124Z" fill="#A1A1AA"/>
<path d="M34.0517 3.22039C33.8102 3.68853 33.2185 4.6126 32.7838 4.56375C32.4243 4.52335 31.3894 4.03464 30.6707 3.67106C30.8518 3.13412 31.3589 2.01137 31.9385 1.81597C32.663 1.57173 32.9069 1.63436 33.4479 1.99916C33.8102 2.2434 34.0316 2.91508 34.0517 3.22039Z" fill="#71717A"/>
<path d="M21.6748 10.2425C20.6605 10.389 13.2423 12.2168 9.66005 13.1124C7.48653 13.9428 3.68287 20.4194 2.05273 23.5539C2.13324 23.4929 2.37876 23.3585 2.71687 23.3097C3.05497 23.2608 4.58851 21.9053 5.31301 21.2336C6.9834 19.6867 10.614 16.5929 11.7732 16.5929C13.2222 16.5929 16.724 15.3106 18.4145 14.5168C19.7669 13.8818 22.6005 13.5602 23.8483 13.4788C23.9288 13.377 24.126 13.1124 24.2709 12.8681C24.4521 12.5628 27.1086 9.38763 28.135 9.02126C28.9561 8.72816 29.7249 6.53808 30.0066 5.47968C29.8255 5.50003 29.0889 5.6018 27.5916 5.84605C25.7199 6.15135 22.9427 10.0593 21.6748 10.2425Z" fill="#D4D4D8"/>
<path d="M4.19823 35.6425L3.0188 33.6885L8.09034 34.4213L7.67754 35.2761L5.67251 35.093L4.19823 35.6425Z" fill="#A1A1AA"/>
<path d="M42.0773 7.24374C42.0071 7.12095 41.7517 6.84429 41.2918 6.72002C40.8347 6.5965 40.6351 7.1655 40.6686 7.33027C40.7021 7.49505 40.816 7.52584 40.9176 7.5533C41.1332 7.61155 41.1524 7.53888 41.2962 7.57772C41.4247 7.61245 41.6123 7.74101 41.7081 7.7669C41.78 7.78632 41.9601 7.80385 42.1058 7.71864C42.2515 7.63342 42.1475 7.36653 42.0773 7.24374Z" fill="#3F3F46"/>
<path d="M16.543 41.1991C13.3552 41.0526 11.8337 36.131 11.4714 33.6885L33.9915 38.146C32.6029 38.8788 29.4392 40.2832 27.8936 40.039C25.9616 39.7336 20.5278 41.3823 16.543 41.1991Z" fill="#A1A1AA"/>
<path d="M27.4105 30.0249C25.5787 29.6149 23.6672 30.0249 23.6672 30.0249C23.6672 30.0249 25.8408 30.3302 26.8671 30.6355C27.8935 30.9408 28.7175 31.1601 29.8859 31.5514C30.6929 31.8217 31.2746 31.9177 31.2746 31.9177C29.294 30.797 29.2423 30.4348 27.4105 30.0249Z" fill="#71717A"/>
<path d="M67.0341 40.5V5.59091H80.8068C83.4432 5.59091 85.6932 6.0625 87.5568 7.00568C89.4318 7.9375 90.858 9.26136 91.8352 10.9773C92.8239 12.6818 93.3182 14.6875 93.3182 16.9943C93.3182 19.3125 92.8182 21.3068 91.8182 22.9773C90.8182 24.6364 89.3693 25.9091 87.4716 26.7955C85.5852 27.6818 83.3011 28.125 80.6193 28.125H71.3977V22.1932H79.4261C80.8352 22.1932 82.0057 22 82.9375 21.6136C83.8693 21.2273 84.5625 20.6477 85.017 19.875C85.483 19.1023 85.7159 18.142 85.7159 16.9943C85.7159 15.8352 85.483 14.858 85.017 14.0625C84.5625 13.267 83.8636 12.6648 82.9205 12.2557C81.9886 11.8352 80.8125 11.625 79.392 11.625H74.4148V40.5H67.0341ZM85.8864 24.6136L94.5625 40.5H86.4148L77.9261 24.6136H85.8864ZM113.747 29.3523V14.3182H121.009V40.5H114.037V35.7443H113.765C113.174 37.2784 112.191 38.5114 110.816 39.4432C109.452 40.375 107.787 40.8409 105.821 40.8409C104.071 40.8409 102.532 40.4432 101.202 39.6477C99.8725 38.8523 98.8327 37.7216 98.0827 36.2557C97.3441 34.7898 96.9691 33.0341 96.9577 30.9886V14.3182H104.219V29.6932C104.23 31.2386 104.645 32.4602 105.463 33.358C106.282 34.2557 107.378 34.7045 108.753 34.7045C109.628 34.7045 110.446 34.5057 111.208 34.108C111.969 33.6989 112.583 33.0966 113.049 32.3011C113.526 31.5057 113.759 30.5227 113.747 29.3523ZM132.638 25.3636V40.5H125.377V14.3182H132.298V18.9375H132.604C133.184 17.4148 134.156 16.2102 135.519 15.3239C136.883 14.4261 138.536 13.9773 140.479 13.9773C142.298 13.9773 143.883 14.375 145.235 15.1705C146.587 15.9659 147.638 17.1023 148.388 18.5795C149.138 20.0455 149.513 21.7955 149.513 23.8295V40.5H142.252V25.125C142.263 23.5227 141.854 22.2727 141.025 21.375C140.195 20.4659 139.053 20.0114 137.599 20.0114C136.621 20.0114 135.758 20.2216 135.008 20.642C134.269 21.0625 133.69 21.6761 133.269 22.483C132.86 23.2784 132.65 24.2386 132.638 25.3636ZM153.933 40.5V5.59091H161.194V18.7159H161.416C161.734 18.0114 162.194 17.2955 162.796 16.5682C163.41 15.8295 164.206 15.2159 165.183 14.7273C166.171 14.2273 167.399 13.9773 168.865 13.9773C170.774 13.9773 172.535 14.4773 174.149 15.4773C175.762 16.4659 177.052 17.9602 178.018 19.9602C178.984 21.9489 179.467 24.4432 179.467 27.4432C179.467 30.3636 178.995 32.8295 178.052 34.8409C177.12 36.8409 175.848 38.358 174.234 39.392C172.632 40.4148 170.836 40.9261 168.848 40.9261C167.439 40.9261 166.24 40.6932 165.251 40.2273C164.274 39.7614 163.473 39.1761 162.848 38.4716C162.223 37.7557 161.745 37.0341 161.416 36.3068H161.092V40.5H153.933ZM161.041 27.4091C161.041 28.9659 161.257 30.3239 161.689 31.483C162.12 32.642 162.745 33.5455 163.564 34.1932C164.382 34.8295 165.376 35.1477 166.546 35.1477C167.728 35.1477 168.728 34.8239 169.546 34.1761C170.365 33.517 170.984 32.608 171.404 31.4489C171.836 30.2784 172.052 28.9318 172.052 27.4091C172.052 25.8977 171.842 24.5682 171.421 23.4205C171.001 22.2727 170.382 21.375 169.564 20.7273C168.745 20.0795 167.74 19.7557 166.546 19.7557C165.365 19.7557 164.365 20.0682 163.546 20.6932C162.74 21.3182 162.12 22.2045 161.689 23.3523C161.257 24.5 161.041 25.8523 161.041 27.4091ZM194.804 41.0114C192.111 41.0114 189.793 40.4659 187.849 39.375C185.918 38.2727 184.429 36.7159 183.383 34.7045C182.338 32.6818 181.815 30.2898 181.815 27.5284C181.815 24.8352 182.338 22.4716 183.383 20.4375C184.429 18.4034 185.901 16.8182 187.798 15.6818C189.707 14.5455 191.946 13.9773 194.514 13.9773C196.241 13.9773 197.849 14.2557 199.338 14.8125C200.838 15.358 202.145 16.1818 203.258 17.2841C204.383 18.3864 205.258 19.7727 205.883 21.4432C206.508 23.1023 206.821 25.0455 206.821 27.2727V29.267H184.713V24.767H199.986C199.986 23.7216 199.758 22.7955 199.304 21.9886C198.849 21.1818 198.219 20.5511 197.412 20.0966C196.616 19.6307 195.69 19.3977 194.633 19.3977C193.531 19.3977 192.554 19.6534 191.702 20.1648C190.861 20.6648 190.202 21.3409 189.724 22.1932C189.247 23.0341 189.003 23.9716 188.991 25.0057V29.2841C188.991 30.5795 189.23 31.6989 189.707 32.642C190.196 33.5852 190.883 34.3125 191.77 34.8239C192.656 35.3352 193.707 35.5909 194.923 35.5909C195.73 35.5909 196.469 35.4773 197.139 35.25C197.81 35.0227 198.383 34.6818 198.861 34.2273C199.338 33.7727 199.702 33.2159 199.952 32.5568L206.668 33C206.327 34.6136 205.628 36.0227 204.571 37.2273C203.526 38.4205 202.173 39.3523 200.514 40.0227C198.866 40.6818 196.963 41.0114 194.804 41.0114ZM217.586 40.9943C215.915 40.9943 214.426 40.7045 213.12 40.125C211.813 39.5341 210.779 38.6648 210.017 37.517C209.267 36.358 208.892 34.9148 208.892 33.1875C208.892 31.733 209.159 30.5114 209.693 29.5227C210.228 28.5341 210.955 27.7386 211.875 27.1364C212.796 26.5341 213.841 26.0795 215.012 25.7727C216.193 25.4659 217.432 25.25 218.728 25.125C220.25 24.9659 221.478 24.8182 222.409 24.6818C223.341 24.5341 224.017 24.3182 224.438 24.0341C224.858 23.75 225.068 23.3295 225.068 22.7727V22.6705C225.068 21.5909 224.728 20.7557 224.046 20.1648C223.375 19.5739 222.421 19.2784 221.182 19.2784C219.875 19.2784 218.836 19.5682 218.063 20.1477C217.29 20.7159 216.779 21.4318 216.529 22.2955L209.813 21.75C210.154 20.1591 210.824 18.7841 211.824 17.625C212.824 16.4545 214.114 15.5568 215.693 14.9318C217.284 14.2955 219.125 13.9773 221.216 13.9773C222.671 13.9773 224.063 14.1477 225.392 14.4886C226.733 14.8295 227.921 15.358 228.955 16.0739C230 16.7898 230.824 17.7102 231.426 18.8352C232.029 19.9489 232.33 21.2841 232.33 22.8409V40.5H225.443V36.8693H225.239C224.818 37.6875 224.256 38.4091 223.551 39.0341C222.847 39.6477 222 40.1307 221.012 40.483C220.023 40.8239 218.881 40.9943 217.586 40.9943ZM219.665 35.983C220.733 35.983 221.676 35.7727 222.495 35.3523C223.313 34.9205 223.955 34.3409 224.421 33.6136C224.887 32.8864 225.12 32.0625 225.12 31.142V28.3636C224.892 28.5114 224.58 28.6477 224.182 28.7727C223.796 28.8864 223.358 28.9943 222.87 29.0966C222.381 29.1875 221.892 29.2727 221.404 29.3523C220.915 29.4205 220.472 29.483 220.074 29.5398C219.222 29.6648 218.478 29.8636 217.841 30.1364C217.205 30.4091 216.711 30.7784 216.358 31.2443C216.006 31.6989 215.83 32.267 215.83 32.9489C215.83 33.9375 216.188 34.6932 216.904 35.2159C217.631 35.7273 218.551 35.983 219.665 35.983ZM236.523 40.5V14.3182H243.563V18.8864H243.836C244.313 17.2614 245.114 16.0341 246.239 15.2045C247.364 14.3636 248.66 13.9432 250.126 13.9432C250.489 13.9432 250.881 13.9659 251.302 14.0114C251.722 14.0568 252.092 14.1193 252.41 14.1989V20.642C252.069 20.5398 251.597 20.4489 250.995 20.3693C250.393 20.2898 249.842 20.25 249.342 20.25C248.273 20.25 247.319 20.483 246.478 20.9489C245.648 21.4034 244.989 22.0398 244.501 22.858C244.023 23.6761 243.785 24.6193 243.785 25.6875V40.5H236.523Z" fill="#F1F5F9"/>
</svg>
